%TF.GenerationSoftware,KiCad,Pcbnew,7.0.9*%
%TF.CreationDate,2024-01-07T20:37:43-07:00*%
%TF.ProjectId,screw_switch,73637265-775f-4737-9769-7463682e6b69,rev?*%
%TF.SameCoordinates,Original*%
%TF.FileFunction,Drillmap*%
%TF.FilePolarity,Positive*%
%FSLAX45Y45*%
G04 Gerber Fmt 4.5, Leading zero omitted, Abs format (unit mm)*
G04 Created by KiCad (PCBNEW 7.0.9) date 2024-01-07 20:37:43*
%MOMM*%
%LPD*%
G01*
G04 APERTURE LIST*
%ADD10C,0.050000*%
%ADD11C,0.200000*%
%ADD12C,0.100000*%
%ADD13C,0.350000*%
G04 APERTURE END LIST*
D10*
X15405047Y-9300000D02*
G75*
G03*
X15405047Y-9300000I-175047J0D01*
G01*
X14800000Y-7500000D02*
X15600000Y-7500000D01*
X15600000Y-10500000D01*
X14800000Y-10500000D01*
X14800000Y-7500000D01*
D11*
D12*
X15060110Y-7660360D02*
X15140110Y-7740360D01*
X15140110Y-7660360D02*
X15060110Y-7740360D01*
X15310110Y-7660360D02*
X15390110Y-7740360D01*
X15390110Y-7660360D02*
X15310110Y-7740360D01*
D13*
X15405110Y-8500360D02*
G75*
G03*
X15405110Y-8500360I-175000J0D01*
G01*
X15405110Y-10100360D02*
G75*
G03*
X15405110Y-10100360I-175000J0D01*
G01*
D11*
X15058277Y-10813984D02*
X15058277Y-10613984D01*
X15058277Y-10613984D02*
X15105896Y-10613984D01*
X15105896Y-10613984D02*
X15134467Y-10623508D01*
X15134467Y-10623508D02*
X15153515Y-10642555D01*
X15153515Y-10642555D02*
X15163039Y-10661603D01*
X15163039Y-10661603D02*
X15172562Y-10699698D01*
X15172562Y-10699698D02*
X15172562Y-10728270D01*
X15172562Y-10728270D02*
X15163039Y-10766365D01*
X15163039Y-10766365D02*
X15153515Y-10785412D01*
X15153515Y-10785412D02*
X15134467Y-10804460D01*
X15134467Y-10804460D02*
X15105896Y-10813984D01*
X15105896Y-10813984D02*
X15058277Y-10813984D01*
X15258277Y-10813984D02*
X15258277Y-10680650D01*
X15258277Y-10718746D02*
X15267801Y-10699698D01*
X15267801Y-10699698D02*
X15277324Y-10690174D01*
X15277324Y-10690174D02*
X15296372Y-10680650D01*
X15296372Y-10680650D02*
X15315420Y-10680650D01*
X15382086Y-10813984D02*
X15382086Y-10680650D01*
X15382086Y-10613984D02*
X15372562Y-10623508D01*
X15372562Y-10623508D02*
X15382086Y-10633031D01*
X15382086Y-10633031D02*
X15391610Y-10623508D01*
X15391610Y-10623508D02*
X15382086Y-10613984D01*
X15382086Y-10613984D02*
X15382086Y-10633031D01*
X15505896Y-10813984D02*
X15486848Y-10804460D01*
X15486848Y-10804460D02*
X15477324Y-10785412D01*
X15477324Y-10785412D02*
X15477324Y-10613984D01*
X15610658Y-10813984D02*
X15591610Y-10804460D01*
X15591610Y-10804460D02*
X15582086Y-10785412D01*
X15582086Y-10785412D02*
X15582086Y-10613984D01*
X15839229Y-10813984D02*
X15839229Y-10613984D01*
X15839229Y-10613984D02*
X15905896Y-10756841D01*
X15905896Y-10756841D02*
X15972562Y-10613984D01*
X15972562Y-10613984D02*
X15972562Y-10813984D01*
X16153515Y-10813984D02*
X16153515Y-10709222D01*
X16153515Y-10709222D02*
X16143991Y-10690174D01*
X16143991Y-10690174D02*
X16124943Y-10680650D01*
X16124943Y-10680650D02*
X16086848Y-10680650D01*
X16086848Y-10680650D02*
X16067801Y-10690174D01*
X16153515Y-10804460D02*
X16134467Y-10813984D01*
X16134467Y-10813984D02*
X16086848Y-10813984D01*
X16086848Y-10813984D02*
X16067801Y-10804460D01*
X16067801Y-10804460D02*
X16058277Y-10785412D01*
X16058277Y-10785412D02*
X16058277Y-10766365D01*
X16058277Y-10766365D02*
X16067801Y-10747317D01*
X16067801Y-10747317D02*
X16086848Y-10737793D01*
X16086848Y-10737793D02*
X16134467Y-10737793D01*
X16134467Y-10737793D02*
X16153515Y-10728270D01*
X16248753Y-10680650D02*
X16248753Y-10880650D01*
X16248753Y-10690174D02*
X16267801Y-10680650D01*
X16267801Y-10680650D02*
X16305896Y-10680650D01*
X16305896Y-10680650D02*
X16324943Y-10690174D01*
X16324943Y-10690174D02*
X16334467Y-10699698D01*
X16334467Y-10699698D02*
X16343991Y-10718746D01*
X16343991Y-10718746D02*
X16343991Y-10775889D01*
X16343991Y-10775889D02*
X16334467Y-10794936D01*
X16334467Y-10794936D02*
X16324943Y-10804460D01*
X16324943Y-10804460D02*
X16305896Y-10813984D01*
X16305896Y-10813984D02*
X16267801Y-10813984D01*
X16267801Y-10813984D02*
X16248753Y-10804460D01*
X16429705Y-10794936D02*
X16439229Y-10804460D01*
X16439229Y-10804460D02*
X16429705Y-10813984D01*
X16429705Y-10813984D02*
X16420182Y-10804460D01*
X16420182Y-10804460D02*
X16429705Y-10794936D01*
X16429705Y-10794936D02*
X16429705Y-10813984D01*
X16429705Y-10690174D02*
X16439229Y-10699698D01*
X16439229Y-10699698D02*
X16429705Y-10709222D01*
X16429705Y-10709222D02*
X16420182Y-10699698D01*
X16420182Y-10699698D02*
X16429705Y-10690174D01*
X16429705Y-10690174D02*
X16429705Y-10709222D01*
D12*
X14717500Y-11102500D02*
X14797500Y-11182500D01*
X14797500Y-11102500D02*
X14717500Y-11182500D01*
D11*
X15096372Y-11033984D02*
X15115420Y-11033984D01*
X15115420Y-11033984D02*
X15134467Y-11043508D01*
X15134467Y-11043508D02*
X15143991Y-11053031D01*
X15143991Y-11053031D02*
X15153515Y-11072079D01*
X15153515Y-11072079D02*
X15163039Y-11110174D01*
X15163039Y-11110174D02*
X15163039Y-11157793D01*
X15163039Y-11157793D02*
X15153515Y-11195888D01*
X15153515Y-11195888D02*
X15143991Y-11214936D01*
X15143991Y-11214936D02*
X15134467Y-11224460D01*
X15134467Y-11224460D02*
X15115420Y-11233984D01*
X15115420Y-11233984D02*
X15096372Y-11233984D01*
X15096372Y-11233984D02*
X15077324Y-11224460D01*
X15077324Y-11224460D02*
X15067801Y-11214936D01*
X15067801Y-11214936D02*
X15058277Y-11195888D01*
X15058277Y-11195888D02*
X15048753Y-11157793D01*
X15048753Y-11157793D02*
X15048753Y-11110174D01*
X15048753Y-11110174D02*
X15058277Y-11072079D01*
X15058277Y-11072079D02*
X15067801Y-11053031D01*
X15067801Y-11053031D02*
X15077324Y-11043508D01*
X15077324Y-11043508D02*
X15096372Y-11033984D01*
X15248753Y-11214936D02*
X15258277Y-11224460D01*
X15258277Y-11224460D02*
X15248753Y-11233984D01*
X15248753Y-11233984D02*
X15239229Y-11224460D01*
X15239229Y-11224460D02*
X15248753Y-11214936D01*
X15248753Y-11214936D02*
X15248753Y-11233984D01*
X15372562Y-11119698D02*
X15353515Y-11110174D01*
X15353515Y-11110174D02*
X15343991Y-11100650D01*
X15343991Y-11100650D02*
X15334467Y-11081603D01*
X15334467Y-11081603D02*
X15334467Y-11072079D01*
X15334467Y-11072079D02*
X15343991Y-11053031D01*
X15343991Y-11053031D02*
X15353515Y-11043508D01*
X15353515Y-11043508D02*
X15372562Y-11033984D01*
X15372562Y-11033984D02*
X15410658Y-11033984D01*
X15410658Y-11033984D02*
X15429705Y-11043508D01*
X15429705Y-11043508D02*
X15439229Y-11053031D01*
X15439229Y-11053031D02*
X15448753Y-11072079D01*
X15448753Y-11072079D02*
X15448753Y-11081603D01*
X15448753Y-11081603D02*
X15439229Y-11100650D01*
X15439229Y-11100650D02*
X15429705Y-11110174D01*
X15429705Y-11110174D02*
X15410658Y-11119698D01*
X15410658Y-11119698D02*
X15372562Y-11119698D01*
X15372562Y-11119698D02*
X15353515Y-11129222D01*
X15353515Y-11129222D02*
X15343991Y-11138746D01*
X15343991Y-11138746D02*
X15334467Y-11157793D01*
X15334467Y-11157793D02*
X15334467Y-11195888D01*
X15334467Y-11195888D02*
X15343991Y-11214936D01*
X15343991Y-11214936D02*
X15353515Y-11224460D01*
X15353515Y-11224460D02*
X15372562Y-11233984D01*
X15372562Y-11233984D02*
X15410658Y-11233984D01*
X15410658Y-11233984D02*
X15429705Y-11224460D01*
X15429705Y-11224460D02*
X15439229Y-11214936D01*
X15439229Y-11214936D02*
X15448753Y-11195888D01*
X15448753Y-11195888D02*
X15448753Y-11157793D01*
X15448753Y-11157793D02*
X15439229Y-11138746D01*
X15439229Y-11138746D02*
X15429705Y-11129222D01*
X15429705Y-11129222D02*
X15410658Y-11119698D01*
X15572562Y-11033984D02*
X15591610Y-11033984D01*
X15591610Y-11033984D02*
X15610658Y-11043508D01*
X15610658Y-11043508D02*
X15620182Y-11053031D01*
X15620182Y-11053031D02*
X15629705Y-11072079D01*
X15629705Y-11072079D02*
X15639229Y-11110174D01*
X15639229Y-11110174D02*
X15639229Y-11157793D01*
X15639229Y-11157793D02*
X15629705Y-11195888D01*
X15629705Y-11195888D02*
X15620182Y-11214936D01*
X15620182Y-11214936D02*
X15610658Y-11224460D01*
X15610658Y-11224460D02*
X15591610Y-11233984D01*
X15591610Y-11233984D02*
X15572562Y-11233984D01*
X15572562Y-11233984D02*
X15553515Y-11224460D01*
X15553515Y-11224460D02*
X15543991Y-11214936D01*
X15543991Y-11214936D02*
X15534467Y-11195888D01*
X15534467Y-11195888D02*
X15524943Y-11157793D01*
X15524943Y-11157793D02*
X15524943Y-11110174D01*
X15524943Y-11110174D02*
X15534467Y-11072079D01*
X15534467Y-11072079D02*
X15543991Y-11053031D01*
X15543991Y-11053031D02*
X15553515Y-11043508D01*
X15553515Y-11043508D02*
X15572562Y-11033984D01*
X15763039Y-11033984D02*
X15782086Y-11033984D01*
X15782086Y-11033984D02*
X15801134Y-11043508D01*
X15801134Y-11043508D02*
X15810658Y-11053031D01*
X15810658Y-11053031D02*
X15820182Y-11072079D01*
X15820182Y-11072079D02*
X15829705Y-11110174D01*
X15829705Y-11110174D02*
X15829705Y-11157793D01*
X15829705Y-11157793D02*
X15820182Y-11195888D01*
X15820182Y-11195888D02*
X15810658Y-11214936D01*
X15810658Y-11214936D02*
X15801134Y-11224460D01*
X15801134Y-11224460D02*
X15782086Y-11233984D01*
X15782086Y-11233984D02*
X15763039Y-11233984D01*
X15763039Y-11233984D02*
X15743991Y-11224460D01*
X15743991Y-11224460D02*
X15734467Y-11214936D01*
X15734467Y-11214936D02*
X15724943Y-11195888D01*
X15724943Y-11195888D02*
X15715420Y-11157793D01*
X15715420Y-11157793D02*
X15715420Y-11110174D01*
X15715420Y-11110174D02*
X15724943Y-11072079D01*
X15724943Y-11072079D02*
X15734467Y-11053031D01*
X15734467Y-11053031D02*
X15743991Y-11043508D01*
X15743991Y-11043508D02*
X15763039Y-11033984D01*
X15915420Y-11233984D02*
X15915420Y-11100650D01*
X15915420Y-11119698D02*
X15924943Y-11110174D01*
X15924943Y-11110174D02*
X15943991Y-11100650D01*
X15943991Y-11100650D02*
X15972563Y-11100650D01*
X15972563Y-11100650D02*
X15991610Y-11110174D01*
X15991610Y-11110174D02*
X16001134Y-11129222D01*
X16001134Y-11129222D02*
X16001134Y-11233984D01*
X16001134Y-11129222D02*
X16010658Y-11110174D01*
X16010658Y-11110174D02*
X16029705Y-11100650D01*
X16029705Y-11100650D02*
X16058277Y-11100650D01*
X16058277Y-11100650D02*
X16077324Y-11110174D01*
X16077324Y-11110174D02*
X16086848Y-11129222D01*
X16086848Y-11129222D02*
X16086848Y-11233984D01*
X16182086Y-11233984D02*
X16182086Y-11100650D01*
X16182086Y-11119698D02*
X16191610Y-11110174D01*
X16191610Y-11110174D02*
X16210658Y-11100650D01*
X16210658Y-11100650D02*
X16239229Y-11100650D01*
X16239229Y-11100650D02*
X16258277Y-11110174D01*
X16258277Y-11110174D02*
X16267801Y-11129222D01*
X16267801Y-11129222D02*
X16267801Y-11233984D01*
X16267801Y-11129222D02*
X16277324Y-11110174D01*
X16277324Y-11110174D02*
X16296372Y-11100650D01*
X16296372Y-11100650D02*
X16324943Y-11100650D01*
X16324943Y-11100650D02*
X16343991Y-11110174D01*
X16343991Y-11110174D02*
X16353515Y-11129222D01*
X16353515Y-11129222D02*
X16353515Y-11233984D01*
X16743991Y-11024460D02*
X16572563Y-11281603D01*
X17001134Y-11033984D02*
X17020182Y-11033984D01*
X17020182Y-11033984D02*
X17039229Y-11043508D01*
X17039229Y-11043508D02*
X17048753Y-11053031D01*
X17048753Y-11053031D02*
X17058277Y-11072079D01*
X17058277Y-11072079D02*
X17067801Y-11110174D01*
X17067801Y-11110174D02*
X17067801Y-11157793D01*
X17067801Y-11157793D02*
X17058277Y-11195888D01*
X17058277Y-11195888D02*
X17048753Y-11214936D01*
X17048753Y-11214936D02*
X17039229Y-11224460D01*
X17039229Y-11224460D02*
X17020182Y-11233984D01*
X17020182Y-11233984D02*
X17001134Y-11233984D01*
X17001134Y-11233984D02*
X16982087Y-11224460D01*
X16982087Y-11224460D02*
X16972563Y-11214936D01*
X16972563Y-11214936D02*
X16963039Y-11195888D01*
X16963039Y-11195888D02*
X16953515Y-11157793D01*
X16953515Y-11157793D02*
X16953515Y-11110174D01*
X16953515Y-11110174D02*
X16963039Y-11072079D01*
X16963039Y-11072079D02*
X16972563Y-11053031D01*
X16972563Y-11053031D02*
X16982087Y-11043508D01*
X16982087Y-11043508D02*
X17001134Y-11033984D01*
X17153515Y-11214936D02*
X17163039Y-11224460D01*
X17163039Y-11224460D02*
X17153515Y-11233984D01*
X17153515Y-11233984D02*
X17143991Y-11224460D01*
X17143991Y-11224460D02*
X17153515Y-11214936D01*
X17153515Y-11214936D02*
X17153515Y-11233984D01*
X17286848Y-11033984D02*
X17305896Y-11033984D01*
X17305896Y-11033984D02*
X17324944Y-11043508D01*
X17324944Y-11043508D02*
X17334468Y-11053031D01*
X17334468Y-11053031D02*
X17343991Y-11072079D01*
X17343991Y-11072079D02*
X17353515Y-11110174D01*
X17353515Y-11110174D02*
X17353515Y-11157793D01*
X17353515Y-11157793D02*
X17343991Y-11195888D01*
X17343991Y-11195888D02*
X17334468Y-11214936D01*
X17334468Y-11214936D02*
X17324944Y-11224460D01*
X17324944Y-11224460D02*
X17305896Y-11233984D01*
X17305896Y-11233984D02*
X17286848Y-11233984D01*
X17286848Y-11233984D02*
X17267801Y-11224460D01*
X17267801Y-11224460D02*
X17258277Y-11214936D01*
X17258277Y-11214936D02*
X17248753Y-11195888D01*
X17248753Y-11195888D02*
X17239229Y-11157793D01*
X17239229Y-11157793D02*
X17239229Y-11110174D01*
X17239229Y-11110174D02*
X17248753Y-11072079D01*
X17248753Y-11072079D02*
X17258277Y-11053031D01*
X17258277Y-11053031D02*
X17267801Y-11043508D01*
X17267801Y-11043508D02*
X17286848Y-11033984D01*
X17420182Y-11033984D02*
X17543991Y-11033984D01*
X17543991Y-11033984D02*
X17477325Y-11110174D01*
X17477325Y-11110174D02*
X17505896Y-11110174D01*
X17505896Y-11110174D02*
X17524944Y-11119698D01*
X17524944Y-11119698D02*
X17534468Y-11129222D01*
X17534468Y-11129222D02*
X17543991Y-11148270D01*
X17543991Y-11148270D02*
X17543991Y-11195888D01*
X17543991Y-11195888D02*
X17534468Y-11214936D01*
X17534468Y-11214936D02*
X17524944Y-11224460D01*
X17524944Y-11224460D02*
X17505896Y-11233984D01*
X17505896Y-11233984D02*
X17448753Y-11233984D01*
X17448753Y-11233984D02*
X17429706Y-11224460D01*
X17429706Y-11224460D02*
X17420182Y-11214936D01*
X17734468Y-11233984D02*
X17620182Y-11233984D01*
X17677325Y-11233984D02*
X17677325Y-11033984D01*
X17677325Y-11033984D02*
X17658277Y-11062555D01*
X17658277Y-11062555D02*
X17639229Y-11081603D01*
X17639229Y-11081603D02*
X17620182Y-11091127D01*
X17915420Y-11033984D02*
X17820182Y-11033984D01*
X17820182Y-11033984D02*
X17810658Y-11129222D01*
X17810658Y-11129222D02*
X17820182Y-11119698D01*
X17820182Y-11119698D02*
X17839229Y-11110174D01*
X17839229Y-11110174D02*
X17886849Y-11110174D01*
X17886849Y-11110174D02*
X17905896Y-11119698D01*
X17905896Y-11119698D02*
X17915420Y-11129222D01*
X17915420Y-11129222D02*
X17924944Y-11148270D01*
X17924944Y-11148270D02*
X17924944Y-11195888D01*
X17924944Y-11195888D02*
X17915420Y-11214936D01*
X17915420Y-11214936D02*
X17905896Y-11224460D01*
X17905896Y-11224460D02*
X17886849Y-11233984D01*
X17886849Y-11233984D02*
X17839229Y-11233984D01*
X17839229Y-11233984D02*
X17820182Y-11224460D01*
X17820182Y-11224460D02*
X17810658Y-11214936D01*
X18001134Y-11033984D02*
X18001134Y-11072079D01*
X18077325Y-11033984D02*
X18077325Y-11072079D01*
X18372563Y-11310174D02*
X18363039Y-11300650D01*
X18363039Y-11300650D02*
X18343991Y-11272079D01*
X18343991Y-11272079D02*
X18334468Y-11253031D01*
X18334468Y-11253031D02*
X18324944Y-11224460D01*
X18324944Y-11224460D02*
X18315420Y-11176841D01*
X18315420Y-11176841D02*
X18315420Y-11138746D01*
X18315420Y-11138746D02*
X18324944Y-11091127D01*
X18324944Y-11091127D02*
X18334468Y-11062555D01*
X18334468Y-11062555D02*
X18343991Y-11043508D01*
X18343991Y-11043508D02*
X18363039Y-11014936D01*
X18363039Y-11014936D02*
X18372563Y-11005412D01*
X18439230Y-11053031D02*
X18448753Y-11043508D01*
X18448753Y-11043508D02*
X18467801Y-11033984D01*
X18467801Y-11033984D02*
X18515420Y-11033984D01*
X18515420Y-11033984D02*
X18534468Y-11043508D01*
X18534468Y-11043508D02*
X18543991Y-11053031D01*
X18543991Y-11053031D02*
X18553515Y-11072079D01*
X18553515Y-11072079D02*
X18553515Y-11091127D01*
X18553515Y-11091127D02*
X18543991Y-11119698D01*
X18543991Y-11119698D02*
X18429706Y-11233984D01*
X18429706Y-11233984D02*
X18553515Y-11233984D01*
X18791611Y-11233984D02*
X18791611Y-11033984D01*
X18877325Y-11233984D02*
X18877325Y-11129222D01*
X18877325Y-11129222D02*
X18867801Y-11110174D01*
X18867801Y-11110174D02*
X18848753Y-11100650D01*
X18848753Y-11100650D02*
X18820182Y-11100650D01*
X18820182Y-11100650D02*
X18801134Y-11110174D01*
X18801134Y-11110174D02*
X18791611Y-11119698D01*
X19001134Y-11233984D02*
X18982087Y-11224460D01*
X18982087Y-11224460D02*
X18972563Y-11214936D01*
X18972563Y-11214936D02*
X18963039Y-11195888D01*
X18963039Y-11195888D02*
X18963039Y-11138746D01*
X18963039Y-11138746D02*
X18972563Y-11119698D01*
X18972563Y-11119698D02*
X18982087Y-11110174D01*
X18982087Y-11110174D02*
X19001134Y-11100650D01*
X19001134Y-11100650D02*
X19029706Y-11100650D01*
X19029706Y-11100650D02*
X19048753Y-11110174D01*
X19048753Y-11110174D02*
X19058277Y-11119698D01*
X19058277Y-11119698D02*
X19067801Y-11138746D01*
X19067801Y-11138746D02*
X19067801Y-11195888D01*
X19067801Y-11195888D02*
X19058277Y-11214936D01*
X19058277Y-11214936D02*
X19048753Y-11224460D01*
X19048753Y-11224460D02*
X19029706Y-11233984D01*
X19029706Y-11233984D02*
X19001134Y-11233984D01*
X19182087Y-11233984D02*
X19163039Y-11224460D01*
X19163039Y-11224460D02*
X19153515Y-11205412D01*
X19153515Y-11205412D02*
X19153515Y-11033984D01*
X19334468Y-11224460D02*
X19315420Y-11233984D01*
X19315420Y-11233984D02*
X19277325Y-11233984D01*
X19277325Y-11233984D02*
X19258277Y-11224460D01*
X19258277Y-11224460D02*
X19248753Y-11205412D01*
X19248753Y-11205412D02*
X19248753Y-11129222D01*
X19248753Y-11129222D02*
X19258277Y-11110174D01*
X19258277Y-11110174D02*
X19277325Y-11100650D01*
X19277325Y-11100650D02*
X19315420Y-11100650D01*
X19315420Y-11100650D02*
X19334468Y-11110174D01*
X19334468Y-11110174D02*
X19343992Y-11129222D01*
X19343992Y-11129222D02*
X19343992Y-11148270D01*
X19343992Y-11148270D02*
X19248753Y-11167317D01*
X19420182Y-11224460D02*
X19439230Y-11233984D01*
X19439230Y-11233984D02*
X19477325Y-11233984D01*
X19477325Y-11233984D02*
X19496373Y-11224460D01*
X19496373Y-11224460D02*
X19505896Y-11205412D01*
X19505896Y-11205412D02*
X19505896Y-11195888D01*
X19505896Y-11195888D02*
X19496373Y-11176841D01*
X19496373Y-11176841D02*
X19477325Y-11167317D01*
X19477325Y-11167317D02*
X19448753Y-11167317D01*
X19448753Y-11167317D02*
X19429706Y-11157793D01*
X19429706Y-11157793D02*
X19420182Y-11138746D01*
X19420182Y-11138746D02*
X19420182Y-11129222D01*
X19420182Y-11129222D02*
X19429706Y-11110174D01*
X19429706Y-11110174D02*
X19448753Y-11100650D01*
X19448753Y-11100650D02*
X19477325Y-11100650D01*
X19477325Y-11100650D02*
X19496373Y-11110174D01*
X19572563Y-11310174D02*
X19582087Y-11300650D01*
X19582087Y-11300650D02*
X19601134Y-11272079D01*
X19601134Y-11272079D02*
X19610658Y-11253031D01*
X19610658Y-11253031D02*
X19620182Y-11224460D01*
X19620182Y-11224460D02*
X19629706Y-11176841D01*
X19629706Y-11176841D02*
X19629706Y-11138746D01*
X19629706Y-11138746D02*
X19620182Y-11091127D01*
X19620182Y-11091127D02*
X19610658Y-11062555D01*
X19610658Y-11062555D02*
X19601134Y-11043508D01*
X19601134Y-11043508D02*
X19582087Y-11014936D01*
X19582087Y-11014936D02*
X19572563Y-11005412D01*
X14797500Y-11406500D02*
G75*
G03*
X14797500Y-11406500I-100000J0D01*
G01*
X15039229Y-11297984D02*
X15163039Y-11297984D01*
X15163039Y-11297984D02*
X15096372Y-11374174D01*
X15096372Y-11374174D02*
X15124943Y-11374174D01*
X15124943Y-11374174D02*
X15143991Y-11383698D01*
X15143991Y-11383698D02*
X15153515Y-11393222D01*
X15153515Y-11393222D02*
X15163039Y-11412269D01*
X15163039Y-11412269D02*
X15163039Y-11459888D01*
X15163039Y-11459888D02*
X15153515Y-11478936D01*
X15153515Y-11478936D02*
X15143991Y-11488460D01*
X15143991Y-11488460D02*
X15124943Y-11497984D01*
X15124943Y-11497984D02*
X15067801Y-11497984D01*
X15067801Y-11497984D02*
X15048753Y-11488460D01*
X15048753Y-11488460D02*
X15039229Y-11478936D01*
X15248753Y-11478936D02*
X15258277Y-11488460D01*
X15258277Y-11488460D02*
X15248753Y-11497984D01*
X15248753Y-11497984D02*
X15239229Y-11488460D01*
X15239229Y-11488460D02*
X15248753Y-11478936D01*
X15248753Y-11478936D02*
X15248753Y-11497984D01*
X15439229Y-11297984D02*
X15343991Y-11297984D01*
X15343991Y-11297984D02*
X15334467Y-11393222D01*
X15334467Y-11393222D02*
X15343991Y-11383698D01*
X15343991Y-11383698D02*
X15363039Y-11374174D01*
X15363039Y-11374174D02*
X15410658Y-11374174D01*
X15410658Y-11374174D02*
X15429705Y-11383698D01*
X15429705Y-11383698D02*
X15439229Y-11393222D01*
X15439229Y-11393222D02*
X15448753Y-11412269D01*
X15448753Y-11412269D02*
X15448753Y-11459888D01*
X15448753Y-11459888D02*
X15439229Y-11478936D01*
X15439229Y-11478936D02*
X15429705Y-11488460D01*
X15429705Y-11488460D02*
X15410658Y-11497984D01*
X15410658Y-11497984D02*
X15363039Y-11497984D01*
X15363039Y-11497984D02*
X15343991Y-11488460D01*
X15343991Y-11488460D02*
X15334467Y-11478936D01*
X15572562Y-11297984D02*
X15591610Y-11297984D01*
X15591610Y-11297984D02*
X15610658Y-11307508D01*
X15610658Y-11307508D02*
X15620182Y-11317031D01*
X15620182Y-11317031D02*
X15629705Y-11336079D01*
X15629705Y-11336079D02*
X15639229Y-11374174D01*
X15639229Y-11374174D02*
X15639229Y-11421793D01*
X15639229Y-11421793D02*
X15629705Y-11459888D01*
X15629705Y-11459888D02*
X15620182Y-11478936D01*
X15620182Y-11478936D02*
X15610658Y-11488460D01*
X15610658Y-11488460D02*
X15591610Y-11497984D01*
X15591610Y-11497984D02*
X15572562Y-11497984D01*
X15572562Y-11497984D02*
X15553515Y-11488460D01*
X15553515Y-11488460D02*
X15543991Y-11478936D01*
X15543991Y-11478936D02*
X15534467Y-11459888D01*
X15534467Y-11459888D02*
X15524943Y-11421793D01*
X15524943Y-11421793D02*
X15524943Y-11374174D01*
X15524943Y-11374174D02*
X15534467Y-11336079D01*
X15534467Y-11336079D02*
X15543991Y-11317031D01*
X15543991Y-11317031D02*
X15553515Y-11307508D01*
X15553515Y-11307508D02*
X15572562Y-11297984D01*
X15763039Y-11297984D02*
X15782086Y-11297984D01*
X15782086Y-11297984D02*
X15801134Y-11307508D01*
X15801134Y-11307508D02*
X15810658Y-11317031D01*
X15810658Y-11317031D02*
X15820182Y-11336079D01*
X15820182Y-11336079D02*
X15829705Y-11374174D01*
X15829705Y-11374174D02*
X15829705Y-11421793D01*
X15829705Y-11421793D02*
X15820182Y-11459888D01*
X15820182Y-11459888D02*
X15810658Y-11478936D01*
X15810658Y-11478936D02*
X15801134Y-11488460D01*
X15801134Y-11488460D02*
X15782086Y-11497984D01*
X15782086Y-11497984D02*
X15763039Y-11497984D01*
X15763039Y-11497984D02*
X15743991Y-11488460D01*
X15743991Y-11488460D02*
X15734467Y-11478936D01*
X15734467Y-11478936D02*
X15724943Y-11459888D01*
X15724943Y-11459888D02*
X15715420Y-11421793D01*
X15715420Y-11421793D02*
X15715420Y-11374174D01*
X15715420Y-11374174D02*
X15724943Y-11336079D01*
X15724943Y-11336079D02*
X15734467Y-11317031D01*
X15734467Y-11317031D02*
X15743991Y-11307508D01*
X15743991Y-11307508D02*
X15763039Y-11297984D01*
X15915420Y-11497984D02*
X15915420Y-11364650D01*
X15915420Y-11383698D02*
X15924943Y-11374174D01*
X15924943Y-11374174D02*
X15943991Y-11364650D01*
X15943991Y-11364650D02*
X15972563Y-11364650D01*
X15972563Y-11364650D02*
X15991610Y-11374174D01*
X15991610Y-11374174D02*
X16001134Y-11393222D01*
X16001134Y-11393222D02*
X16001134Y-11497984D01*
X16001134Y-11393222D02*
X16010658Y-11374174D01*
X16010658Y-11374174D02*
X16029705Y-11364650D01*
X16029705Y-11364650D02*
X16058277Y-11364650D01*
X16058277Y-11364650D02*
X16077324Y-11374174D01*
X16077324Y-11374174D02*
X16086848Y-11393222D01*
X16086848Y-11393222D02*
X16086848Y-11497984D01*
X16182086Y-11497984D02*
X16182086Y-11364650D01*
X16182086Y-11383698D02*
X16191610Y-11374174D01*
X16191610Y-11374174D02*
X16210658Y-11364650D01*
X16210658Y-11364650D02*
X16239229Y-11364650D01*
X16239229Y-11364650D02*
X16258277Y-11374174D01*
X16258277Y-11374174D02*
X16267801Y-11393222D01*
X16267801Y-11393222D02*
X16267801Y-11497984D01*
X16267801Y-11393222D02*
X16277324Y-11374174D01*
X16277324Y-11374174D02*
X16296372Y-11364650D01*
X16296372Y-11364650D02*
X16324943Y-11364650D01*
X16324943Y-11364650D02*
X16343991Y-11374174D01*
X16343991Y-11374174D02*
X16353515Y-11393222D01*
X16353515Y-11393222D02*
X16353515Y-11497984D01*
X16743991Y-11288460D02*
X16572563Y-11545603D01*
X17001134Y-11297984D02*
X17020182Y-11297984D01*
X17020182Y-11297984D02*
X17039229Y-11307508D01*
X17039229Y-11307508D02*
X17048753Y-11317031D01*
X17048753Y-11317031D02*
X17058277Y-11336079D01*
X17058277Y-11336079D02*
X17067801Y-11374174D01*
X17067801Y-11374174D02*
X17067801Y-11421793D01*
X17067801Y-11421793D02*
X17058277Y-11459888D01*
X17058277Y-11459888D02*
X17048753Y-11478936D01*
X17048753Y-11478936D02*
X17039229Y-11488460D01*
X17039229Y-11488460D02*
X17020182Y-11497984D01*
X17020182Y-11497984D02*
X17001134Y-11497984D01*
X17001134Y-11497984D02*
X16982087Y-11488460D01*
X16982087Y-11488460D02*
X16972563Y-11478936D01*
X16972563Y-11478936D02*
X16963039Y-11459888D01*
X16963039Y-11459888D02*
X16953515Y-11421793D01*
X16953515Y-11421793D02*
X16953515Y-11374174D01*
X16953515Y-11374174D02*
X16963039Y-11336079D01*
X16963039Y-11336079D02*
X16972563Y-11317031D01*
X16972563Y-11317031D02*
X16982087Y-11307508D01*
X16982087Y-11307508D02*
X17001134Y-11297984D01*
X17153515Y-11478936D02*
X17163039Y-11488460D01*
X17163039Y-11488460D02*
X17153515Y-11497984D01*
X17153515Y-11497984D02*
X17143991Y-11488460D01*
X17143991Y-11488460D02*
X17153515Y-11478936D01*
X17153515Y-11478936D02*
X17153515Y-11497984D01*
X17353515Y-11497984D02*
X17239229Y-11497984D01*
X17296372Y-11497984D02*
X17296372Y-11297984D01*
X17296372Y-11297984D02*
X17277325Y-11326555D01*
X17277325Y-11326555D02*
X17258277Y-11345603D01*
X17258277Y-11345603D02*
X17239229Y-11355127D01*
X17420182Y-11297984D02*
X17543991Y-11297984D01*
X17543991Y-11297984D02*
X17477325Y-11374174D01*
X17477325Y-11374174D02*
X17505896Y-11374174D01*
X17505896Y-11374174D02*
X17524944Y-11383698D01*
X17524944Y-11383698D02*
X17534468Y-11393222D01*
X17534468Y-11393222D02*
X17543991Y-11412269D01*
X17543991Y-11412269D02*
X17543991Y-11459888D01*
X17543991Y-11459888D02*
X17534468Y-11478936D01*
X17534468Y-11478936D02*
X17524944Y-11488460D01*
X17524944Y-11488460D02*
X17505896Y-11497984D01*
X17505896Y-11497984D02*
X17448753Y-11497984D01*
X17448753Y-11497984D02*
X17429706Y-11488460D01*
X17429706Y-11488460D02*
X17420182Y-11478936D01*
X17610658Y-11297984D02*
X17743991Y-11297984D01*
X17743991Y-11297984D02*
X17658277Y-11497984D01*
X17848753Y-11383698D02*
X17829706Y-11374174D01*
X17829706Y-11374174D02*
X17820182Y-11364650D01*
X17820182Y-11364650D02*
X17810658Y-11345603D01*
X17810658Y-11345603D02*
X17810658Y-11336079D01*
X17810658Y-11336079D02*
X17820182Y-11317031D01*
X17820182Y-11317031D02*
X17829706Y-11307508D01*
X17829706Y-11307508D02*
X17848753Y-11297984D01*
X17848753Y-11297984D02*
X17886849Y-11297984D01*
X17886849Y-11297984D02*
X17905896Y-11307508D01*
X17905896Y-11307508D02*
X17915420Y-11317031D01*
X17915420Y-11317031D02*
X17924944Y-11336079D01*
X17924944Y-11336079D02*
X17924944Y-11345603D01*
X17924944Y-11345603D02*
X17915420Y-11364650D01*
X17915420Y-11364650D02*
X17905896Y-11374174D01*
X17905896Y-11374174D02*
X17886849Y-11383698D01*
X17886849Y-11383698D02*
X17848753Y-11383698D01*
X17848753Y-11383698D02*
X17829706Y-11393222D01*
X17829706Y-11393222D02*
X17820182Y-11402746D01*
X17820182Y-11402746D02*
X17810658Y-11421793D01*
X17810658Y-11421793D02*
X17810658Y-11459888D01*
X17810658Y-11459888D02*
X17820182Y-11478936D01*
X17820182Y-11478936D02*
X17829706Y-11488460D01*
X17829706Y-11488460D02*
X17848753Y-11497984D01*
X17848753Y-11497984D02*
X17886849Y-11497984D01*
X17886849Y-11497984D02*
X17905896Y-11488460D01*
X17905896Y-11488460D02*
X17915420Y-11478936D01*
X17915420Y-11478936D02*
X17924944Y-11459888D01*
X17924944Y-11459888D02*
X17924944Y-11421793D01*
X17924944Y-11421793D02*
X17915420Y-11402746D01*
X17915420Y-11402746D02*
X17905896Y-11393222D01*
X17905896Y-11393222D02*
X17886849Y-11383698D01*
X18001134Y-11297984D02*
X18001134Y-11336079D01*
X18077325Y-11297984D02*
X18077325Y-11336079D01*
X18372563Y-11574174D02*
X18363039Y-11564650D01*
X18363039Y-11564650D02*
X18343991Y-11536079D01*
X18343991Y-11536079D02*
X18334468Y-11517031D01*
X18334468Y-11517031D02*
X18324944Y-11488460D01*
X18324944Y-11488460D02*
X18315420Y-11440841D01*
X18315420Y-11440841D02*
X18315420Y-11402746D01*
X18315420Y-11402746D02*
X18324944Y-11355127D01*
X18324944Y-11355127D02*
X18334468Y-11326555D01*
X18334468Y-11326555D02*
X18343991Y-11307508D01*
X18343991Y-11307508D02*
X18363039Y-11278936D01*
X18363039Y-11278936D02*
X18372563Y-11269412D01*
X18439230Y-11317031D02*
X18448753Y-11307508D01*
X18448753Y-11307508D02*
X18467801Y-11297984D01*
X18467801Y-11297984D02*
X18515420Y-11297984D01*
X18515420Y-11297984D02*
X18534468Y-11307508D01*
X18534468Y-11307508D02*
X18543991Y-11317031D01*
X18543991Y-11317031D02*
X18553515Y-11336079D01*
X18553515Y-11336079D02*
X18553515Y-11355127D01*
X18553515Y-11355127D02*
X18543991Y-11383698D01*
X18543991Y-11383698D02*
X18429706Y-11497984D01*
X18429706Y-11497984D02*
X18553515Y-11497984D01*
X18791611Y-11497984D02*
X18791611Y-11297984D01*
X18877325Y-11497984D02*
X18877325Y-11393222D01*
X18877325Y-11393222D02*
X18867801Y-11374174D01*
X18867801Y-11374174D02*
X18848753Y-11364650D01*
X18848753Y-11364650D02*
X18820182Y-11364650D01*
X18820182Y-11364650D02*
X18801134Y-11374174D01*
X18801134Y-11374174D02*
X18791611Y-11383698D01*
X19001134Y-11497984D02*
X18982087Y-11488460D01*
X18982087Y-11488460D02*
X18972563Y-11478936D01*
X18972563Y-11478936D02*
X18963039Y-11459888D01*
X18963039Y-11459888D02*
X18963039Y-11402746D01*
X18963039Y-11402746D02*
X18972563Y-11383698D01*
X18972563Y-11383698D02*
X18982087Y-11374174D01*
X18982087Y-11374174D02*
X19001134Y-11364650D01*
X19001134Y-11364650D02*
X19029706Y-11364650D01*
X19029706Y-11364650D02*
X19048753Y-11374174D01*
X19048753Y-11374174D02*
X19058277Y-11383698D01*
X19058277Y-11383698D02*
X19067801Y-11402746D01*
X19067801Y-11402746D02*
X19067801Y-11459888D01*
X19067801Y-11459888D02*
X19058277Y-11478936D01*
X19058277Y-11478936D02*
X19048753Y-11488460D01*
X19048753Y-11488460D02*
X19029706Y-11497984D01*
X19029706Y-11497984D02*
X19001134Y-11497984D01*
X19182087Y-11497984D02*
X19163039Y-11488460D01*
X19163039Y-11488460D02*
X19153515Y-11469412D01*
X19153515Y-11469412D02*
X19153515Y-11297984D01*
X19334468Y-11488460D02*
X19315420Y-11497984D01*
X19315420Y-11497984D02*
X19277325Y-11497984D01*
X19277325Y-11497984D02*
X19258277Y-11488460D01*
X19258277Y-11488460D02*
X19248753Y-11469412D01*
X19248753Y-11469412D02*
X19248753Y-11393222D01*
X19248753Y-11393222D02*
X19258277Y-11374174D01*
X19258277Y-11374174D02*
X19277325Y-11364650D01*
X19277325Y-11364650D02*
X19315420Y-11364650D01*
X19315420Y-11364650D02*
X19334468Y-11374174D01*
X19334468Y-11374174D02*
X19343992Y-11393222D01*
X19343992Y-11393222D02*
X19343992Y-11412269D01*
X19343992Y-11412269D02*
X19248753Y-11431317D01*
X19420182Y-11488460D02*
X19439230Y-11497984D01*
X19439230Y-11497984D02*
X19477325Y-11497984D01*
X19477325Y-11497984D02*
X19496373Y-11488460D01*
X19496373Y-11488460D02*
X19505896Y-11469412D01*
X19505896Y-11469412D02*
X19505896Y-11459888D01*
X19505896Y-11459888D02*
X19496373Y-11440841D01*
X19496373Y-11440841D02*
X19477325Y-11431317D01*
X19477325Y-11431317D02*
X19448753Y-11431317D01*
X19448753Y-11431317D02*
X19429706Y-11421793D01*
X19429706Y-11421793D02*
X19420182Y-11402746D01*
X19420182Y-11402746D02*
X19420182Y-11393222D01*
X19420182Y-11393222D02*
X19429706Y-11374174D01*
X19429706Y-11374174D02*
X19448753Y-11364650D01*
X19448753Y-11364650D02*
X19477325Y-11364650D01*
X19477325Y-11364650D02*
X19496373Y-11374174D01*
X19572563Y-11574174D02*
X19582087Y-11564650D01*
X19582087Y-11564650D02*
X19601134Y-11536079D01*
X19601134Y-11536079D02*
X19610658Y-11517031D01*
X19610658Y-11517031D02*
X19620182Y-11488460D01*
X19620182Y-11488460D02*
X19629706Y-11440841D01*
X19629706Y-11440841D02*
X19629706Y-11402746D01*
X19629706Y-11402746D02*
X19620182Y-11355127D01*
X19620182Y-11355127D02*
X19610658Y-11326555D01*
X19610658Y-11326555D02*
X19601134Y-11307508D01*
X19601134Y-11307508D02*
X19582087Y-11278936D01*
X19582087Y-11278936D02*
X19572563Y-11269412D01*
M02*
